<?xml version="1.0" encoding="UTF-8" standalone="no"?>
<!-- Created with Inkscape (http://www.inkscape.org/) -->

<svg
   width="1.6933334mm"
   height="1.6933334mm"
   viewBox="0 0 1.6933334 1.6933334"
   version="1.1"
   id="svg1"
   xml:space="preserve"
   sodipodi:docname="lock.svg"
   inkscape:version="1.3.2 (091e20e, 2023-11-25, custom)"
   xmlns:inkscape="http://www.inkscape.org/namespaces/inkscape"
   xmlns:sodipodi="http://sodipodi.sourceforge.net/DTD/sodipodi-0.dtd"
   xmlns="http://www.w3.org/2000/svg"
   xmlns:svg="http://www.w3.org/2000/svg"><sodipodi:namedview
     id="namedview1"
     pagecolor="#505050"
     bordercolor="#ffffff"
     borderopacity="1"
     inkscape:showpageshadow="0"
     inkscape:pageopacity="0"
     inkscape:pagecheckerboard="1"
     inkscape:deskcolor="#505050"
     inkscape:document-units="mm"
     inkscape:zoom="90.509668"
     inkscape:cx="3.1322621"
     inkscape:cy="4.0382426"
     inkscape:window-width="1920"
     inkscape:window-height="1121"
     inkscape:window-x="-9"
     inkscape:window-y="-9"
     inkscape:window-maximized="1"
     inkscape:current-layer="layer1" /><defs
     id="defs1"><inkscape:path-effect
       effect="powerclip"
       id="path-effect4"
       is_visible="true"
       lpeversion="1"
       inverse="true"
       flatten="false"
       hide_clip="false"
       message="Use fill-rule evenodd on &lt;b&gt;fill and stroke&lt;/b&gt; dialog if no flatten result after convert clip to paths." /><clipPath
       clipPathUnits="userSpaceOnUse"
       id="clipPath4"><rect
         style="display:none;opacity:1;fill:#ffffff;fill-opacity:1;stroke:#39317c;stroke-width:0;-inkscape-stroke:none;paint-order:markers stroke fill"
         id="rect4"
         width="0.50849509"
         height="0.54570925"
         x="104.81145"
         y="147.89207"
         ry="0.14457601"
         d="m 104.95602,147.89207 h 0.21935 c 0.0801,0 0.14457,0.0645 0.14457,0.14458 v 0.25656 c 0,0.0801 -0.0645,0.14457 -0.14457,0.14457 h -0.21935 c -0.0801,0 -0.14457,-0.0645 -0.14457,-0.14457 v -0.25656 c 0,-0.0801 0.0645,-0.14458 0.14457,-0.14458 z" /><path
         id="lpe_path-effect4"
         style="opacity:1;fill:#ffffff;fill-opacity:1;stroke:#39317c;stroke-width:0;-inkscape-stroke:none;paint-order:markers stroke fill"
         class="powerclip"
         d="m 99.555878,142.65201 h 11.022012 v 10.79668 H 99.555878 Z m 5.400142,5.24006 c -0.0801,0 -0.14457,0.0645 -0.14457,0.14458 v 0.25656 c 0,0.0801 0.0645,0.14457 0.14457,0.14457 h 0.21935 c 0.0801,0 0.14457,-0.0645 0.14457,-0.14457 v -0.25656 c 0,-0.0801 -0.0645,-0.14458 -0.14457,-0.14458 z" /></clipPath></defs><g
     inkscape:label="Layer 1"
     inkscape:groupmode="layer"
     id="layer1"
     transform="translate(-104.21923,-147.65334)"><rect
       style="display:inline;fill:#000000;fill-opacity:1;stroke:#39317c;stroke-width:0;-inkscape-stroke:none;paint-order:markers stroke fill"
       id="rect1"
       width="1.519604"
       height="1.0998027"
       x="104.30507"
       y="148.24615"
       ry="0.16765937" /><path
       style="display:inline;fill:#000000;fill-opacity:1;stroke:#39317c;stroke-width:0;-inkscape-stroke:none;paint-order:markers stroke fill"
       id="rect2"
       width="1.0220104"
       height="0.79668534"
       x="104.55588"
       y="147.65201"
       ry="0.18106288"
       clip-path="url(#clipPath4)"
       inkscape:path-effect="#path-effect4"
       sodipodi:type="rect"
       d="m 104.73694,147.65201 h 0.65989 c 0.1003,0 0.18106,0.0808 0.18106,0.18106 v 0.43456 c 0,0.10031 -0.0808,0.18106 -0.18106,0.18106 h -0.65989 c -0.10031,0 -0.18106,-0.0807 -0.18106,-0.18106 v -0.43456 c 0,-0.10031 0.0807,-0.18106 0.18106,-0.18106 z" /><path
       id="path4"
       style="opacity:1;fill:#ffffff;fill-opacity:1;stroke:#39317c;stroke-width:0;-inkscape-stroke:none;paint-order:markers stroke fill"
       d="M 105.06466 148.48533 A 0.25424805 0.19366753 0 0 0 104.81041 148.67912 A 0.25424805 0.19366753 0 0 0 104.98197 148.86153 L 104.98197 149.11682 L 105.14837 149.11682 L 105.14837 148.86153 A 0.25424805 0.19366753 0 0 0 105.3189 148.67912 A 0.25424805 0.19366753 0 0 0 105.06466 148.48533 z " /></g></svg>
