<?xml version="1.0" encoding="UTF-8" standalone="no"?>
<!-- Created with Inkscape (http://www.inkscape.org/) -->

<svg
   width="40.958496mm"
   height="9.1118078mm"
   viewBox="0 0 40.958496 9.1118079"
   version="1.1"
   id="svg1"
   inkscape:version="1.3.2 (091e20e, 2023-11-25, custom)"
   sodipodi:docname="logo.svg"
   xmlns:inkscape="http://www.inkscape.org/namespaces/inkscape"
   xmlns:sodipodi="http://sodipodi.sourceforge.net/DTD/sodipodi-0.dtd"
   xmlns="http://www.w3.org/2000/svg"
   xmlns:svg="http://www.w3.org/2000/svg">
  <sodipodi:namedview
     id="namedview1"
     pagecolor="#505050"
     bordercolor="#ffffff"
     borderopacity="1"
     inkscape:showpageshadow="0"
     inkscape:pageopacity="0"
     inkscape:pagecheckerboard="1"
     inkscape:deskcolor="#505050"
     inkscape:document-units="mm"
     inkscape:zoom="6.1647025"
     inkscape:cx="109.25101"
     inkscape:cy="21.168905"
     inkscape:window-width="1920"
     inkscape:window-height="1121"
     inkscape:window-x="-9"
     inkscape:window-y="-9"
     inkscape:window-maximized="1"
     inkscape:current-layer="layer1" />
  <defs
     id="defs1" />
  <g
     inkscape:label="Layer 1"
     inkscape:groupmode="layer"
     id="layer1"
     transform="translate(-44.317703,-77.613897)">
    <path
       id="text1"
       style="font-style:normal;font-variant:normal;font-weight:normal;font-stretch:normal;font-size:5.64444px;line-height:0px;font-family:'FOT Pop Happiness Std Stripped';-inkscape-font-specification:'FOT Pop Happiness Std Stripped';letter-spacing:0px;word-spacing:0px;fill:#ffffff;stroke:#39317c;stroke-width:0;-inkscape-stroke:none;paint-order:markers stroke fill"
       d="m 45.833633,79.930283 -0.291423,4.020843 0.89466,0.08275 0.29735,-4.02573 z m 1.837246,0.329249 c -0.315717,-0.01533 -0.660874,0.227691 -0.675379,0.526494 -0.01533,0.315717 0.31859,0.535426 0.611755,0.549658 0.06765,0.0033 0.141846,-0.0042 0.199592,-0.02963 0.201702,-0.08062 0.295241,-0.262748 0.304273,-0.448795 0.01314,-0.270614 -0.142923,-0.555036 -0.38398,-0.594993 z m 11.105813,0.652435 -0.908004,-0.03166 c -0.03065,0.285115 -0.06325,0.620989 -0.08346,0.973266 l -0.38164,0.0389 0.08245,0.763506 0.269474,-0.03038 c -0.0065,0.306033 -0.0037,0.582847 0.0115,0.796795 0.05807,0.816381 0.415571,1.232256 1.063046,1.186204 0.201487,-0.01433 0.435219,-0.07678 0.695854,-0.18093 0.214833,0.334369 0.623675,0.527472 1.237407,0.557265 0.682173,0.03312 1.238404,-0.250883 1.562387,-0.755055 l -0.52876,-0.511481 c -0.190371,0.31287 -0.621652,0.580322 -0.993747,0.562258 -0.518677,-0.02518 -0.669296,-0.184973 -0.649043,-0.60217 0.0019,-0.03946 0.0098,-0.08465 0.01739,-0.123842 l 0.257992,0.504546 c 0.484686,-0.08949 1.127371,-0.290251 1.490325,-0.549535 0.222447,-0.158734 0.321506,-0.33486 0.32999,-0.509631 0.01943,-0.400284 -0.453677,-0.77894 -1.107661,-0.810688 -0.112756,-0.0055 -0.232094,-2.42e-4 -0.351583,0.01656 -0.825271,0.111554 -1.403164,0.771087 -1.441576,1.421087 -0.158071,0.08481 -0.29622,0.134239 -0.403194,0.141848 -0.174537,0.01241 -0.278401,-0.09359 -0.298423,-0.375096 -0.02002,-0.281511 -0.02345,-0.569942 -0.01572,-0.859085 l 0.780639,-0.08369 -0.08245,-0.763506 -0.651605,0.06874 c 0.02462,-0.290345 0.06133,-0.569977 0.09841,-0.844232 z m -13.335219,-0.385048 -3.076378,0.129522 0.03366,0.84133 3.076403,-0.130038 z m 7.641361,0.761565 c -0.287528,-0.01396 -0.580259,0.07945 -0.816445,0.28838 l 0.0088,-0.29913 -0.858999,0.0033 -0.0072,2.706544 0.886587,0.01458 c -0.0059,-0.345001 -0.0026,-0.638774 0.0094,-0.886837 0.03585,-0.738552 0.17928,-1.025008 0.641579,-1.002566 0.298803,0.0145 0.437235,0.190695 0.424646,0.450034 -0.02107,0.43411 -0.08617,1.074874 -0.156889,1.48397 l 0.873027,0.05945 c 0.06798,-0.352718 0.141785,-1.055621 0.165322,-1.540472 0.03531,-0.727275 -0.279088,-1.23403 -1.16986,-1.277273 z m -3.234457,-0.02457 c -0.315717,-0.01533 -0.701308,0.118509 -0.886206,0.318623 l 0.0045,-0.315898 -0.853287,-0.0078 -0.06145,3.834371 0.869829,0.0081 0.01212,-1.304744 c 0.203124,0.122882 0.520217,0.228581 0.807744,0.242539 0.749827,0.0364 1.332296,-0.438207 1.378275,-1.385357 0.04187,-0.862583 -0.476563,-1.351231 -1.271492,-1.389821 z m 6.268063,0.776127 c -1.003527,-0.04872 -1.707055,0.708386 -1.747286,1.537142 -0.03968,0.81748 0.674858,1.225305 1.430323,1.261979 0.918961,0.04461 1.536548,-0.332613 1.626425,-1.136354 0.0078,-0.04483 0.01005,-0.08986 0.01224,-0.134958 0.04106,-0.845668 -0.498584,-1.48785 -1.321702,-1.527809 z m -9.077083,-0.409604 -0.21759,2.617174 0.906566,0.07195 0.216799,-2.611522 z m -3.370412,-0.04824 -0.931331,0.02257 c 0.03387,0.626532 0.08451,2.201388 0.112729,2.974675 l 0.925654,-0.02284 c -0.01693,-0.412044 -0.03927,-0.976154 -0.0562,-1.506731 l 0.620841,1.31e-4 0.829869,-6.9e-5 1.36e-4,-0.812786 -0.513746,-1.06e-4 -0.971106,-6.1e-5 c -0.0056,-0.282222 -0.0112,-0.513667 -0.01685,-0.654778 z m 6.040239,0.449469 c 0.366457,0.01779 0.574309,0.276591 0.557614,0.620496 -0.01943,0.400284 -0.234847,0.649802 -0.595666,0.632286 -0.174771,-0.0085 -0.418811,-0.111234 -0.553735,-0.242108 l -0.199032,0.380438 c 0,0 0.01592,-0.327131 0.03141,-0.529818 0.04811,-0.641887 0.359124,-0.880725 0.759408,-0.861294 z m 11.445369,0.830339 c 0.157858,0.0077 0.245239,0.07451 0.241681,0.147802 -0.0022,0.0451 -0.03876,0.09419 -0.120154,0.141101 -0.203344,0.114452 -0.724883,0.269506 -1.07771,0.320191 0.09097,-0.244232 0.340672,-0.503108 0.728969,-0.585977 0.08566,-0.01845 0.165198,-0.02613 0.227214,-0.02312 z m -5.142137,-0.07527 c 0.349544,0.01697 0.579948,0.38424 0.561337,0.76761 -0.0016,0.03383 -0.0031,0.06218 -0.01034,0.09573 -0.04324,0.30871 -0.333436,0.469626 -0.728082,0.450468 -0.405921,-0.01971 -0.633856,-0.211625 -0.617708,-0.544255 0.01752,-0.360819 0.343768,-0.791448 0.794791,-0.769553 z m 5.91485,2.584788 c -0.112755,-0.0055 -0.231578,-2.17e-4 -0.351066,0.01659 -0.830508,0.112262 -1.410947,0.779466 -1.442694,1.43345 -0.03968,0.81748 0.416994,1.297119 1.414883,1.345562 0.584643,0.02838 1.076538,-0.176557 1.409264,-0.552953 l -0.03686,1.57982 0.824648,0.01158 c 0.0027,-0.05638 -1.96e-4,-0.113197 0.0025,-0.169575 0.03366,-0.693449 0.219936,-1.040359 0.562802,-1.351478 0.195079,-0.177015 0.519029,-0.33641 0.78729,-0.3912 l -0.356813,-0.79132 c -0.258901,0.0948 -0.521338,0.26268 -0.754075,0.516983 -0.07176,0.08128 -0.139802,0.196546 -0.203296,0.340392 l 0.03674,-0.874128 -0.836313,0.0049 -0.0183,0.781897 -0.383965,-0.371488 c -0.190372,0.31287 -0.621653,0.580322 -0.993748,0.562259 -0.518677,-0.02518 -0.669296,-0.184974 -0.649043,-0.60217 0.0019,-0.03947 0.0098,-0.08465 0.01739,-0.123843 l 0.257992,0.504546 c 0.484687,-0.08949 1.127371,-0.290251 1.490325,-0.549535 0.222447,-0.158734 0.321506,-0.33486 0.32999,-0.509631 0.01943,-0.400284 -0.453676,-0.77894 -1.107661,-0.810688 z m -5.062032,-0.07345 c -0.315716,-0.01533 -0.660873,0.22769 -0.675379,0.526493 -0.01533,0.315717 0.31859,0.535426 0.611756,0.549658 0.06765,0.0033 0.141845,-0.0042 0.199592,-0.02963 0.201702,-0.08063 0.29524,-0.262748 0.304272,-0.448796 0.01314,-0.270614 -0.142407,-0.555011 -0.383463,-0.594968 z M 42.456435,84.700522 c -1.195213,-0.05802 -2.250639,1.077803 -2.30866,2.273015 -0.05802,1.195213 0.810584,1.808248 2.005797,1.866269 1.195212,0.05802 2.127297,-0.625915 2.185318,-1.821128 0.05802,-1.195212 -0.687242,-2.260135 -1.882455,-2.318156 z m 12.208008,0.80838 c -0.287528,-0.01396 -0.580234,0.07894 -0.81642,0.287864 l 0.0088,-0.29913 -0.859541,0.0038 -0.0067,2.706569 0.886587,0.01458 c -0.0059,-0.345 -0.0031,-0.638799 0.0089,-0.886862 0.03585,-0.738551 0.179821,-1.025499 0.64212,-1.003057 0.298803,0.0145 0.43721,0.191211 0.424621,0.45055 -0.02107,0.43411 -0.08617,1.074874 -0.156889,1.48397 l 0.873026,0.05945 c 0.06798,-0.352718 0.141786,-1.055621 0.165323,-1.540471 0.03531,-0.727276 -0.279088,-1.234031 -1.16986,-1.277274 z m 4.437923,0.311153 c -0.501763,-0.02436 -1.101405,-0.0086 -1.515701,0.02783 l 0.04496,0.821702 c 0.433399,-0.08068 0.98278,-0.110648 1.287495,-0.101506 0.05638,0.0027 0.07191,0.03215 0.07054,0.06033 -8.21e-4,0.01691 -0.0014,0.02795 -0.01326,0.03868 -0.294589,0.364322 -0.993335,0.906704 -1.511794,1.226251 l 0.03182,0.623427 c 0.863404,0.02496 1.873471,0.06233 2.52855,0.07153 l 0.005,-0.807374 c -0.436574,0.02967 -1.047727,0.0507 -1.364538,0.05793 0.459618,-0.271545 1.037582,-0.774775 1.257785,-1.120104 0.06694,-0.09847 0.09478,-0.20462 0.09971,-0.3061 0.01341,-0.276252 -0.178484,-0.516885 -0.43109,-0.551752 -0.140397,-0.01812 -0.309112,-0.03208 -0.489522,-0.04084 z m -11.1155,-0.516836 c -0.575553,-0.02161 -1.120312,0.303911 -1.320826,0.979939 l -0.199917,-0.443263 c -0.258901,0.0948 -0.521363,0.263196 -0.7541,0.517498 -0.07176,0.08128 -0.139286,0.196572 -0.20278,0.340418 l 0.03674,-0.874129 -0.836805,0.0044 -0.06296,2.703838 0.824107,0.01207 c 0.0027,-0.05638 -1.96e-4,-0.113197 0.0025,-0.169575 0.03366,-0.693448 0.219936,-1.040359 0.562802,-1.351477 0.142726,-0.12951 0.354724,-0.24943 0.563207,-0.326025 -0.01154,0.62084 0.408616,1.089557 1.037248,1.227376 0.341836,0.07494 0.76375,-0.0057 1.023734,-0.29539 l -0.02735,0.126463 c -0.01934,0.08822 -0.03792,0.171311 -0.07138,0.244874 -0.125243,0.307694 -0.400309,0.455312 -0.808307,0.365863 -0.341836,-0.07494 -0.668258,-0.245143 -0.884937,-0.442888 l -0.394856,0.641517 c 0.312974,0.259306 0.694692,0.441567 1.130257,0.53706 1.031022,0.226038 1.527604,-0.219803 1.725077,-0.962385 0.02365,-0.08149 0.04393,-0.175516 0.0669,-0.280273 0.14626,-0.667132 0.304253,-1.730272 0.349445,-2.199979 l -0.840057,-0.120455 c 0,0 -0.0016,0.03382 -0.01493,0.09447 -0.198782,-0.147593 -0.41957,-0.247618 -0.640109,-0.295969 -0.08753,-0.01919 -0.175517,-0.03069 -0.262729,-0.03397 z m 13.952757,0.740971 c 0.157859,0.0077 0.24524,0.07451 0.241682,0.147802 -0.0022,0.0451 -0.03876,0.09419 -0.120155,0.141101 -0.203344,0.114452 -0.724882,0.269506 -1.07771,0.320191 0.09097,-0.244232 0.340673,-0.503108 0.728969,-0.585977 0.08566,-0.01845 0.165199,-0.02613 0.227214,-0.02312 z M 48.872179,85.791654 c -0.01126,0.130437 -0.04476,0.3885 -0.06395,0.528755 -0.009,0.06737 -0.01662,0.129327 -0.02992,0.189976 -0.148678,0.678158 -0.565727,0.840855 -0.891022,0.769538 -0.270161,-0.05923 -0.516484,-0.332838 -0.43308,-0.713269 0.0689,-0.314269 0.360751,-0.538879 0.713615,-0.461518 0.132323,0.02901 0.278378,0.101548 0.41772,0.230331 z m -6.456536,-0.250829 c 0.687811,0.03339 1.043314,0.740054 1.00965,1.433503 -0.03339,0.687811 -0.538307,1.075872 -1.231756,1.042209 -0.687811,-0.03339 -1.165248,-0.327817 -1.132406,-1.004352 0.03339,-0.687811 0.661063,-1.505024 1.354512,-1.47136 z m 9.137743,0.598802 c -0.913322,-0.04434 -1.768369,0.575278 -1.817358,1.584443 -0.03667,0.755465 0.390155,1.154574 1.151258,1.191521 0.496126,0.02408 0.822249,-0.169234 1.012073,-0.470829 l 0.04379,0.494148 0.823907,-0.09038 -0.25056,-1.712768 -0.244533,0.03883 0.374956,-0.625927 c -0.337775,-0.259394 -0.721435,-0.390975 -1.09353,-0.409038 z m 4.680327,0.529352 -0.217591,2.617173 0.906541,0.07246 0.21734,-2.612012 z m -4.700778,0.243645 c 0.208598,0.01013 0.430843,0.0889 0.647871,0.274616 l -0.512293,0.07654 c 0.004,0.0341 0.0024,0.06813 7.42e-4,0.101958 -0.0219,0.451024 -0.313654,0.866378 -0.674473,0.848862 -0.315716,-0.01533 -0.430736,-0.207336 -0.41541,-0.523053 0.01861,-0.38337 0.434886,-0.804098 0.953563,-0.778919 z"
       transform="rotate(-2.7792332)" />
    <path
       d="m 73.422058,82.342133 c -0.252742,-0.119719 -0.538741,-0.192882 -0.82474,-0.226137 0.23944,-0.05986 0.485532,-0.146324 0.731624,-0.292649 0.445625,-0.266045 0.625205,-0.571997 0.625205,-0.851344 0,-0.425672 -0.41237,-0.804786 -0.911204,-0.931157 -0.372462,-0.09312 -0.798134,-0.139674 -1.24376,-0.139674 -0.65181,0 -1.36348,0.09312 -2.055196,0.246092 l 0.192882,0.984366 c 0.631857,-0.166278 1.36348,-0.266045 1.955431,-0.266045 0.2993,0 0.558694,0.0266 0.751576,0.07982 0.133023,0.03326 0.212836,0.07982 0.212836,0.146324 0,0.04656 -0.03991,0.09977 -0.146324,0.166279 -0.332557,0.212835 -0.83139,0.438973 -1.1839,0.545392 l 0.11972,0.937807 c 0.432322,0 0.784833,0.05986 1.130691,0.206186 0.133022,0.0532 0.212836,0.139673 0.212836,0.232788 0,0.106419 -0.106418,0.23279 -0.345859,0.35251 -0.272696,0.133023 -0.705019,0.226139 -1.163946,0.279347 l -0.07982,-2.786821 -1.050876,0.03991 0.11972,3.724628 c 0.997668,-0.0067 1.795804,-0.113069 2.434311,-0.319253 0.791483,-0.252743 1.150644,-0.751578 1.150644,-1.217156 0,-0.359161 -0.219487,-0.71167 -0.631856,-0.911205 z"
       id="text2"
       style="font-size:8.12555px;line-height:0px;font-family:'FOT Pop Happiness Std Stripped';-inkscape-font-specification:'FOT Pop Happiness Std Stripped';letter-spacing:0px;word-spacing:0px;fill:#ffffff;stroke:#39317c;stroke-width:0;paint-order:markers stroke fill"
       aria-label="B" />
    <path
       d="m 77.32328,83.966738 -0.65181,-0.571996 c -0.206185,0.379113 -0.698368,0.71832 -1.137343,0.71832 -0.611902,0 -0.798134,-0.17958 -0.798134,-0.671763 0,-0.04655 0.0067,-0.09977 0.0133,-0.146325 l 0.332556,0.578648 c 0.565346,-0.133023 1.31027,-0.405718 1.722641,-0.731623 0.252743,-0.199534 0.35916,-0.412371 0.35916,-0.618556 0,-0.472229 -0.578647,-0.891249 -1.350177,-0.891249 -0.133023,0 -0.272696,0.0133 -0.41237,0.0399 -0.971063,0.179581 -1.616222,0.997669 -1.616222,1.769198 0,0.964413 0.565345,1.503154 1.742593,1.503154 0.804787,0 1.443293,-0.365812 1.795803,-0.977715 z m -1.296969,-1.210504 c -0.23279,0.146324 -0.838041,0.35916 -1.250411,0.438973 0.09312,-0.292649 0.372463,-0.611903 0.824739,-0.731623 0.09977,-0.02661 0.192882,-0.03991 0.266045,-0.03991 0.186231,0 0.29265,0.07316 0.29265,0.159626 0,0.0532 -0.03991,0.11307 -0.133023,0.17293 z"
       id="text3"
       style="font-size:8.12555px;line-height:0px;font-family:'FOT Pop Happiness Std Stripped';-inkscape-font-specification:'FOT Pop Happiness Std Stripped';letter-spacing:0px;word-spacing:0px;fill:#ffffff;stroke:#39317c;stroke-width:0;paint-order:markers stroke fill"
       aria-label="e" />
    <path
       d="m 79.726296,83.848608 -0.304744,-0.909082 c -0.181815,0.107811 -0.341731,0.172949 -0.467284,0.1873 -0.204851,0.02342 -0.332295,-0.09591 -0.37006,-0.426311 -0.03776,-0.330404 -0.05646,-0.669684 -0.06195,-1.010472 l 0.914749,-0.138032 -0.135766,-0.894924 -0.763518,0.114048 c 0.01434,-0.343055 0.04341,-0.674405 0.07324,-0.999148 l -1.070135,0.0085 c -0.02171,0.337202 -0.04322,0.734633 -0.04926,1.150377 l -0.447839,0.06458 0.135765,0.894925 0.315678,-0.04947 c 0.0077,0.360614 0.02494,0.686676 0.05364,0.937783 0.10952,0.958174 0.551705,1.429796 1.311635,1.342934 0.251109,-0.0287 0.541674,-0.122163 0.865847,-0.273022 z"
       id="text4"
       style="font-size:8.12555px;line-height:0px;font-family:'FOT Pop Happiness Std Stripped';-inkscape-font-specification:'FOT Pop Happiness Std Stripped';letter-spacing:0px;word-spacing:0px;fill:#ffffff;stroke:#39317c;stroke-width:0;paint-order:markers stroke fill"
       aria-label="t" />
    <path
       d="m 82.830088,84.575931 -0.140754,-2.035224 -0.291219,0.02388 0.496741,-0.701973 c -0.373659,-0.334995 -0.812514,-0.523981 -1.248089,-0.578497 -1.069141,-0.133811 -2.129329,0.51775 -2.277182,1.699084 -0.110683,0.884351 0.355346,1.39178 1.246296,1.503289 0.580768,0.07268 0.98091,-0.125243 1.230927,-0.462617 l 0.0073,0.584081 z m -0.540045,-2.004761 -0.608834,0.04445 c 0.0016,0.04042 -0.0033,0.08002 -0.0083,0.119616 -0.06608,0.527971 -0.445638,0.989896 -0.868015,0.937031 -0.369578,-0.04626 -0.487513,-0.282215 -0.441257,-0.651795 0.05617,-0.448774 0.58257,-0.905726 1.189736,-0.829734 0.244186,0.03056 0.49826,0.1428 0.736639,0.380426 z"
       id="text5"
       style="font-size:8.12555px;line-height:0px;font-family:'FOT Pop Happiness Std Stripped';-inkscape-font-specification:'FOT Pop Happiness Std Stripped';letter-spacing:0px;word-spacing:0px;fill:#ffffff;stroke:#39317c;stroke-width:0;paint-order:markers stroke fill"
       aria-label="a" />
    <path
       d="m 85.2762,79.52694 -1.137341,-0.172929 -0.552044,3.199189 0.911203,0.159628 z m -1.090784,4.662437 c 0.199534,-0.106418 0.285998,-0.312603 0.285998,-0.518787 0,-0.299302 -0.179581,-0.605253 -0.438974,-0.658463 -0.03326,-0.0067 -0.07316,-0.0133 -0.106418,-0.0133 -0.345859,0 -0.698368,0.319254 -0.698368,0.645159 0,0.385764 0.399068,0.591949 0.718322,0.591949 0.08646,0 0.172928,-0.01996 0.23944,-0.04655 z"
       id="text6"
       style="font-size:8.12555px;line-height:0px;font-family:'FOT Pop Happiness Std Stripped';-inkscape-font-specification:'FOT Pop Happiness Std Stripped';letter-spacing:0px;word-spacing:0px;fill:#ffffff;stroke:#39317c;stroke-width:0;paint-order:markers stroke fill"
       aria-label="!" />
  </g>
</svg>
