<?xml version="1.0" encoding="UTF-8" standalone="no"?>
<svg
   viewBox="0 0 240 240"
   class="Icon"
   part="Icon"
   style="fill:currentColor"
   version="1.1"
   id="svg1"
   sodipodi:docname="muteorange.svg"
   inkscape:version="1.3.2 (091e20e, 2023-11-25, custom)"
   xml:space="preserve"
   xmlns:inkscape="http://www.inkscape.org/namespaces/inkscape"
   xmlns:sodipodi="http://sodipodi.sourceforge.net/DTD/sodipodi-0.dtd"
   xmlns="http://www.w3.org/2000/svg"
   xmlns:svg="http://www.w3.org/2000/svg"><defs
     id="defs1" /><sodipodi:namedview
     id="namedview1"
     pagecolor="#505050"
     bordercolor="#ffffff"
     borderopacity="1"
     inkscape:showpageshadow="0"
     inkscape:pageopacity="0"
     inkscape:pagecheckerboard="1"
     inkscape:deskcolor="#505050"
     inkscape:zoom="2.5485307"
     inkscape:cx="138.51118"
     inkscape:cy="117.91108"
     inkscape:window-width="1920"
     inkscape:window-height="1121"
     inkscape:window-x="-9"
     inkscape:window-y="-9"
     inkscape:window-maximized="1"
     inkscape:current-layer="svg1" /><path
     d="M123.3,40.8221751 C119.99384,39.3918256 116.173884,39.8502203 113.3,42.0221751 L65.5,79.8221751 L29,79.8221751 C23.4771525,79.8221751 19,84.2993276 19,89.8221751 L19,149.822175 C19,155.345023 23.4771525,159.822175 29,159.822175 L65.5,159.822175 L112.8,197.622175 C114.559393,199.033781 116.744358,199.809091 119,199.823416 C120.493687,199.846847 121.970477,199.503408 123.3,198.822175 C126.772838,197.168148 128.989111,193.66877 129,189.822175 L129,49.8221751 C128.989111,45.9755807 126.772838,42.476202 123.3,40.8221751 Z M193.751433,91.2843093 C198.453467,86.8297289 205.877095,86.906532 210.485281,91.5147186 C215.093468,96.1229053 215.170271,103.546533 210.715691,108.248567 L210.485281,108.485281 L198.971,120 L210.485281,131.514719 C215.171573,136.20101 215.171573,143.79899 210.485281,148.485281 C205.877095,153.093468 198.453467,153.170271 193.751433,148.715691 L193.514719,148.485281 L182,136.971 L170.485281,148.485281 L170.248567,148.715691 C165.546533,153.170271 158.122905,153.093468 153.514719,148.485281 C148.906532,143.877095 148.829729,136.453467 153.284309,131.751433 L153.514719,131.514719 L165.029,120 L153.514719,108.485281 C148.828427,103.79899 148.828427,96.2010101 153.514719,91.5147186 C158.122905,86.906532 165.546533,86.8297289 170.248567,91.2843093 L170.485281,91.5147186 L182,103.029 L193.514719,91.5147186 L193.751433,91.2843093 Z"
     id="path1"
     style="fill:#fb6100;fill-opacity:1" /></svg>
