<?xml version="1.0" encoding="UTF-8" standalone="no"?>
<!-- Created with Inkscape (http://www.inkscape.org/) -->

<svg
   width="7.9352899mm"
   height="5.2908263mm"
   viewBox="0 0 7.9352899 5.2908263"
   version="1.1"
   id="svg1"
   xml:space="preserve"
   inkscape:version="1.3.2 (091e20e, 2023-11-25, custom)"
   sodipodi:docname="playbacktype.svg"
   xmlns:inkscape="http://www.inkscape.org/namespaces/inkscape"
   xmlns:sodipodi="http://sodipodi.sourceforge.net/DTD/sodipodi-0.dtd"
   xmlns="http://www.w3.org/2000/svg"
   xmlns:svg="http://www.w3.org/2000/svg"><sodipodi:namedview
     id="namedview1"
     pagecolor="#505050"
     bordercolor="#ffffff"
     borderopacity="1"
     inkscape:showpageshadow="0"
     inkscape:pageopacity="0"
     inkscape:pagecheckerboard="1"
     inkscape:deskcolor="#505050"
     inkscape:document-units="mm"
     inkscape:zoom="16"
     inkscape:cx="8.3125"
     inkscape:cy="13.78125"
     inkscape:window-width="1920"
     inkscape:window-height="1121"
     inkscape:window-x="-9"
     inkscape:window-y="-9"
     inkscape:window-maximized="1"
     inkscape:current-layer="layer1" /><defs
     id="defs1" /><g
     inkscape:label="Layer 1"
     inkscape:groupmode="layer"
     id="layer1"
     transform="translate(-105.25159,-145.06216)"><rect
       style="display:inline;fill:#fbcb79;fill-opacity:1;stroke:#39317c;stroke-width:0;-inkscape-stroke:none;paint-order:markers stroke fill"
       id="rect17"
       width="7.9352899"
       height="5.2908263"
       x="105.25159"
       y="145.06216"
       ry="0" /><rect
       style="display:inline;fill:#ffffff;fill-opacity:1;stroke:#39317c;stroke-width:0;-inkscape-stroke:none;paint-order:markers stroke fill"
       id="rect18"
       width="7.2340341"
       height="4.7311234"
       x="105.60167"
       y="145.34225" /><path
       id="loopicon"
       style="display:inline;opacity:1;fill:#fbcb79;fill-opacity:1;stroke:#39317c;stroke-width:0;-inkscape-stroke:none;paint-order:markers stroke fill"
       d="m 109.89299,145.97164 v 0.63876 h -1.99594 c -0.20741,0 -0.37449,0.16708 -0.37449,0.37449 0,0.004 3.3e-4,0.007 4.4e-4,0.0111 h -4.4e-4 v 1.89901 h 4.4e-4 c 0.005,0.1988 0.16681,0.35722 0.36696,0.35722 h 2.82549 c 0.19761,0 0.35727,-0.15446 0.36652,-0.3497 h 4.5e-4 v -0.008 c 7e-5,-0.003 4.4e-4,-0.006 4.4e-4,-0.009 0,-0.003 -3.7e-4,-0.006 -4.4e-4,-0.009 v -1.41341 l -0.74854,0.61884 v 0.43646 h -2.06234 v -1.15799 h 1.62145 v 0.61175 l 1.18766,-0.98757 z"
       transform="matrix(1.1674112,0,0,1.1674112,-18.356969,-24.71188)"
       inkscape:label="loop" /><path
       id="noloopicon"
       style="display:none;fill:#fbcb79;fill-opacity:1;stroke:#39317c;stroke-width:0;-inkscape-stroke:none;paint-order:markers stroke fill"
       d="m 109.89262,146.60821 v 0.63881 h -1.34893 v 0.74898 h 1.34893 v 0.61192 l 1.18838,-0.98769 z m -2.36822,0.63881 v 0.74898 h 0.34119 v -0.74898 z m 0.51669,0 v 0.74898 h 0.34119 v -0.74898 z"
       transform="matrix(1.2101807,0,0,1.2101807,-23.031787,-31.025158)"
       inkscape:label="noloop" /></g></svg>
