<?xml version="1.0" encoding="UTF-8" standalone="no"?>
<svg
   viewBox="0 0 240 240"
   class="Icon"
   part="Icon"
   style="fill:currentColor"
   version="1.1"
   id="svg1"
   sodipodi:docname="volorange.svg"
   inkscape:version="1.3.2 (091e20e, 2023-11-25, custom)"
   xmlns:inkscape="http://www.inkscape.org/namespaces/inkscape"
   xmlns:sodipodi="http://sodipodi.sourceforge.net/DTD/sodipodi-0.dtd"
   xmlns="http://www.w3.org/2000/svg"
   xmlns:svg="http://www.w3.org/2000/svg">
  <defs
     id="defs1" />
  <sodipodi:namedview
     id="namedview1"
     pagecolor="#505050"
     bordercolor="#ffffff"
     borderopacity="1"
     inkscape:showpageshadow="0"
     inkscape:pageopacity="0"
     inkscape:pagecheckerboard="1"
     inkscape:deskcolor="#505050"
     inkscape:zoom="2.5485307"
     inkscape:cx="122.42348"
     inkscape:cy="142.6312"
     inkscape:window-width="1920"
     inkscape:window-height="1121"
     inkscape:window-x="-9"
     inkscape:window-y="-9"
     inkscape:window-maximized="1"
     inkscape:current-layer="svg1" />
  <path
     d="M113.3,42.0221751 C116.173884,39.8502203 119.99384,39.3918256 123.3,40.8221751 C126.772838,42.476202 128.989111,45.9755807 129,49.8221751 L129,49.8221751 L129,189.822175 C128.989111,193.66877 126.772838,197.168148 123.3,198.822175 C121.970477,199.503408 120.493687,199.846847 119,199.823416 C116.744358,199.809091 114.559393,199.033781 112.8,197.622175 L112.8,197.622175 L65.5,159.822175 L29,159.822175 C23.4771525,159.822175 19,155.345023 19,149.822175 L19,149.822175 L19,89.8221751 C19,84.2993276 23.4771525,79.8221751 29,79.8221751 L29,79.8221751 L65.5,79.8221751 Z M196.286415,59.3197538 C213.294099,75.5543608 222.000706,95.3421052 222.000706,118.00002 C222.000706,140.370063 213.535918,161.147272 197.009268,179.927555 C192.631012,184.902847 185.048463,185.386839 180.073171,181.008583 C175.09788,176.630326 174.613887,169.047777 178.992144,164.072486 C191.798828,149.519435 198.000706,134.296644 198.000706,118.00002 C198.000706,101.991269 192.040647,88.4456799 179.714997,76.6802869 C174.921018,72.1042162 174.744369,64.5082902 179.32044,59.7143114 C183.89651,54.9203325 191.492436,54.7436831 196.286415,59.3197538 Z M165.200706,87.4000203 C176.105233,95.5784156 182.000706,106.386783 182.000706,119.00002 C182.000706,131.432529 176.288715,142.380513 165.682919,151.218676 C160.591596,155.461445 153.02482,154.773556 148.782051,149.682233 C144.608835,144.674375 145.205942,137.27156 150.071653,132.99268 L150.318493,132.781365 C155.712698,128.286195 158.000706,123.900845 158.000706,119.00002 C158.000706,114.387199 155.990753,110.597447 151.143501,106.860651 L150.800706,106.60002 C145.498773,102.62357 144.424256,95.1019539 148.400706,89.8000203 C152.377156,84.4980867 159.898773,83.4235701 165.200706,87.4000203 Z"
     id="path1"
     style="fill:#fb6100;fill-opacity:1" />
</svg>
